<?xml version="1.0" encoding="utf-8"?>
<!-- Generator: Adobe Illustrator 18.0.0, SVG Export Plug-In . SVG Version: 6.00 Build 0)  -->
<!DOCTYPE svg PUBLIC "-//W3C//DTD SVG 1.1//EN" "http://www.w3.org/Graphics/SVG/1.1/DTD/svg11.dtd">
<svg version="1.1" id="Layer_1" xmlns="http://www.w3.org/2000/svg" xmlns:xlink="http://www.w3.org/1999/xlink" x="0px" y="0px"
	 viewBox="0 0 450.7 450.7" enable-background="new 0 0 450.7 450.7" xml:space="preserve">
<rect fill="#6DC288" width="450.7" height="450.7"/>
<path fill="#FFFFFF" d="M226.1,263.4c0,0-28.3-56.9-89.1-5.9c0,0-56.9,58.9-96.2,5.9c0,0,51,119.7,155.1,45.2
	c14.6-10.4,28.1-18.2,46.1-10.2c11.1,5,20.2,13.5,30.3,20.3c49.4,33.4,111-2.6,137.6-47.5c-5.8,9.9-39.4,11.1-48.5,10.6
	c-31-1.8-48.3-29.9-75.3-39.2c-9.3-3.2-22-3.2-31.4-0.7C250.2,243.3,222.8,256.7,226.1,263.4z"/>
</svg>
